<?xml version="1.0" standalone="no"?>
<!DOCTYPE svg PUBLIC "-//W3C//DTD SVG 1.1//EN" "http://www.w3.org/Graphics/SVG/1.1/DTD/svg11-flat.dtd">
<svg width="1024" height="768" version="1.1" id="Canvas" xmlns="http://www.w3.org/2000/svg" xmlns:xlink="http://www.w3.org/1999/xlink">
  <script  type="text/javascript">
	<![CDATA[
	var nominalTTLenght = 550;
	var unitFactor = 1.0;
	var zoomFactor = 1;
	var draggedObject = null;
	var controlPoints = new Array(11)
	var wizStep = 0;
	var wizStepDone = false;
	var panStep = 64;
	var panHOffset = 0;
	var panVOffset = 0;
	var wizInstruction = [
    	["Rear Hub","Mark the center of the Rear Hub","-100","-290","0.5"],
    	["Front Hub","Mark the center of the Front Hub","-705","-290","0.5"],
    	["Bottom Bracket","Mark the center of the Bottom Bracket","-348","-330","0.5"],
    	["Top tube / Seat tube","Mark the point where Top and Seat tube center lines intersect","-255","-14","0.5"],
    	["Top tube / Head tube","Mark the point where Top and Head tube center lines intersect","-592","-14","0.5"],
    	["Head tube / Down tube","Mark the Head and Down tube center line intersection","-602","-49","0.5"],
    	["Seatstay / Seat tube","Mark the Seatstay and Head tube center line intersection","-255","-16","0.5"],
    	["Head tube bottom","Mark the bottom of the head tube","-612","-75","0.5"],
    	["Fork rake","Mark the start of the bend in the fork","-666","-245","0.5"],
    	["Seat tube top","Mark the top of the seat tube","-248","6","0.5"],
    	["Head tube top","Mark the top of the head tube","-587","6","0.5"],
    	["Done!","You are done setting all markers","0","190","0.11"]
	]


	function createCircle(evt,that)
	{
		if(wizStepDone) return;

		var shape = document.createElementNS("http://www.w3.org/2000/svg", "circle");
		shape.setAttribute("cx", (evt.clientX/zoomFactor)-(panHOffset/zoomFactor));
		shape.setAttribute("cy", (evt.clientY/zoomFactor)-(panVOffset/zoomFactor));
		shape.setAttribute("r",  8);
		shape.setAttribute("stroke", "#0f0");
		shape.setAttribute("fill", "#00f");
		shape.setAttribute("opacity", "0.5");
		shape.setAttribute("cursor", "move");
		shape.setAttribute("title", wizInstruction[wizStep][0]);
		shape.setAttribute("onmousedown", "grab(evt,this)");
		shape.setAttribute("onclick", "evt.cancelBubble=true;")
		that.appendChild(shape);

		controlPoints[wizStep] = shape;
		wizStepDone = true;
		document.getElementById("NextButton").setAttribute("visibility", "visible");
		if(wizStep>0) document.getElementById("PrevButton").setAttribute("visibility", "visible");
		updateLines();
		document.getElementById("vizCheck").setAttribute("visibility", "visible");
	}

	function grab(evt,that)
	{
		draggedObject = that;
		evt.cancelBubble = true;
	}

	function drag(evt,that)
	{
	    document.getElementById("hXHair").setAttribute("y1", evt.clientY);
        document.getElementById("hXHair").setAttribute("y2", evt.clientY);
	    document.getElementById("vXHair").setAttribute("x1", evt.clientX);
        document.getElementById("vXHair").setAttribute("x2", evt.clientX);
        
		if(draggedObject == null) return;

		draggedObject.setAttribute("cx", (evt.clientX/zoomFactor)-(panHOffset/zoomFactor));
		draggedObject.setAttribute("cy", (evt.clientY/zoomFactor)-(panVOffset/zoomFactor));

		updateLines();
	}
	
	var oldXPos = "0";
	var oldYPos = "0";
	
    function animateViz(xPos,yPos,scale)
    {
        /*var oldAnim = document.getElementById("animViz");
        if(oldAnim != null)
        {
         document.getElementById("Canvas").removeChild(document.getElementById("animViz"));
        }
        var anim = document.createElementNS("http://www.w3.org/2000/svg", "animateTransform");
        anim.setAttributeNS("http://www.w3.org/1999/xlink", "xlink:href", "#vizPan");
        anim.setAttribute("id", "animViz");
        anim.setAttribute("attributeName", "transform");
        anim.setAttribute("dur", "3s");
        anim.setAttribute("type", "translate");
        anim.setAttribute("from", oldXPos + " " + oldYPos);
        anim.setAttribute("to", xPos + " " + yPos);
        anim.setAttribute("repeatCount", "1");
        anim.setAttribute("fill", "freeze");
        document.getElementById("Canvas").appendChild(anim);
        anim.begin();
        
        oldXPos = xPos;
        oldYPos = yPos; */

        document.getElementById("vizPan").setAttribute("transform", "scale(" + scale + ") translate(" + xPos + " " + yPos + ")");
        
    }

	function updateLines()
	{


	   if(wizStep > 2)
	   {
	     drawLine(2,3,"seatTube");
	   }

	   if(wizStep > 3)
	   {
	     drawLine(3,4,"topTube");
         unitFactor = nominalTTLenght/getLineLenght(3,4);
	     drawMeasurePath(3,4,0,30,"mTopTube")
	     drawMeasurePath(3,2,30,0,"mSeatTube")
	     drawMeasureAngle(2,3,30,0,"aSeatTubeText")
	   }

	   if(wizStep > 4)
	   {
         drawLine(4,5,"headTube");
	     drawLine(2,5,"downTube");
	   }

	   if(wizStep > 5)
	   {
         drawLine(2,0,"chainStay");
	     drawLine(6,0,"seatStay");
	   }

	   if(wizStep > 7)
	   {
         drawLine(7,8,"forkTube");
	     drawLine(8,1,"forkRake");
	   }

	}
	
	function drawLine(cpIndexStart,cpIndexEnd,elementID)
	{
         line = document.getElementById(elementID);
	     line.setAttribute("display", "inline");
	     line.setAttribute("x1", controlPoints[cpIndexStart].getAttribute("cx"));
	     line.setAttribute("y1", controlPoints[cpIndexStart].getAttribute("cy"));
	     line.setAttribute("x2", controlPoints[cpIndexEnd].getAttribute("cx"));
	     line.setAttribute("y2", controlPoints[cpIndexEnd].getAttribute("cy"));
	}
	
	function drawMeasurePath(cpIndexStart,cpIndexEnd,xOffset,yOffset,elementID)
	{
         path = document.getElementById(elementID);
         path.setAttribute("display", "inline");
         strD = "M"+
                controlPoints[cpIndexStart].getAttribute("cx") + " " +
               controlPoints[cpIndexStart].getAttribute("cy") + "L" +
               (controlPoints[cpIndexStart].getAttribute("cx") - xOffset) + " " +
               (controlPoints[cpIndexStart].getAttribute("cy") - yOffset) + "L" +
               (controlPoints[cpIndexEnd].getAttribute("cx") - xOffset) + " " +
               (controlPoints[cpIndexEnd].getAttribute("cy") - yOffset) + "L" +
               controlPoints[cpIndexEnd].getAttribute("cx") + " " +
               controlPoints[cpIndexEnd].getAttribute("cy");
         path.setAttribute("d",strD);
         
         text = document.getElementById(elementID+"Text");
         strT = Math.round(getLineLenght(cpIndexStart,cpIndexEnd)*unitFactor) + " mm";
         text.firstChild.nodeValue = strT;text.setAttribute("display", "inline");
         text.setAttribute("x",parseFloat(controlPoints[cpIndexStart].getAttribute("cx")-xOffset)+(controlPoints[cpIndexEnd].getAttribute("cx")-controlPoints[cpIndexStart].getAttribute("cx"))*0.5 - text.getComputedTextLength()*0.5 );
         text.setAttribute("y",parseFloat(controlPoints[cpIndexStart].getAttribute("cy")-yOffset)+(controlPoints[cpIndexEnd].getAttribute("cy")-controlPoints[cpIndexStart].getAttribute("cy"))*0.5 );



	}
	
	function drawMeasureAngle(cpIndexStart,cpIndexEnd,xOffset,yOffset,elementID)
	{
	
             angle = Math.atan2(controlPoints[cpIndexStart].getAttribute("cy") - controlPoints[cpIndexEnd].getAttribute("cy"), controlPoints[cpIndexStart].getAttribute("cx") - controlPoints[cpIndexEnd].getAttribute("cx"));


             document.getElementById(elementID).firstChild.nodeValue = angle * (180/Math.PI);
             document.getElementById(elementID).setAttribute("display", "inline");
	}

    function getLineLenght(cpIndexStart,cpIndexEnd)
    {
            return Math.sqrt(
                Math.pow(
                   controlPoints[cpIndexEnd].getAttribute("cx")-
                   controlPoints[cpIndexStart].getAttribute("cx")
                   ,2)+
                Math.pow(
                   controlPoints[cpIndexEnd].getAttribute("cy")-
                   controlPoints[cpIndexStart].getAttribute("cy")
                   ,2)
                )
    }

	function drop(evt,that)
	{
		draggedObject = null;
		evt.cancelBubble= true;
	}
	
	

	function nextWizStep()
	{
		wizStepDone = false;
		document.getElementById("NextButton").setAttribute("visibility", "hidden");
		document.getElementById("PrevButton").setAttribute("visibility", "hidden");
		controlPoints[wizStep].setAttribute("fill", "#f00");
		wizStep++;
		animateViz(wizInstruction[wizStep][2],wizInstruction[wizStep][3],wizInstruction[wizStep][4]);
		document.getElementById("instructionHeadline").firstChild.nodeValue = wizInstruction[wizStep][0];
		document.getElementById("instructionText").firstChild.nodeValue = wizInstruction[wizStep][1];
		document.getElementById("vizCheck").setAttribute("visibility", "hidden");
		
		

	}

	function prevWizStep()
	{
		wizStepDone = false;
		if(controlPoints[wizStep] != null) controlPoints[wizStep].parentNode.removeChild(controlPoints[wizStep]);
		controlPoints[wizStep] = null;
		if(wizStep > 0)wizStep--;
		controlPoints[wizStep].setAttribute("fill", "#00f");
		if(wizStep == 0)document.getElementById("PrevButton").setAttribute("visibility", "hidden");
		document.getElementById("instructionText").firstChild.nodeValue = wizInstruction[wizStep][1];
	}

	function zoom(evt,that,zoomDir)
	{
		zoomFactor+=zoomDir;

		adjustPan(zoomDir);
		limitPan();
		if(zoomFactor < 1) zoomFactor = 1;
		if(zoomFactor > 3) zoomFactor = 3;
		doTransform();
	}

	function pan(evt,that,panH,panV)
	{

		panHOffset+= (panStep*panH);
		panVOffset+= (panStep*panV);
		limitPan();
		doTransform();
	}

	function adjustPan(zoomDir)
	{
		 panHOffset-= ((512/2)*zoomFactor)*zoomDir;
		 panVOffset-= ((384/2)*zoomFactor)*zoomDir;
	}

	function limitPan()
	{
		if(panHOffset > 0) panHOffset = 0;
		if(panHOffset < -512*zoomFactor) panHOffset = -512*zoomFactor;
		if(panVOffset > 0) panVOffset = 0;
		if(panVOffset < -384*zoomFactor) panVOffset = -384*zoomFactor;
		if(zoomFactor < 2)
		{
			panHOffset = 0;
			panVOffset = 0;
		}
	}

	function doTransform()
	{
	    document.getElementById("imageContainer").setAttribute("transform","translate(" + (panHOffset) + "," + (panVOffset) + ") scale(" + zoomFactor + "," + zoomFactor + ")");
	}
	]]>
	</script>
  <defs>
    <clipPath id="clipRect">
    <rect  width="112" height="112" rx="8" ry="8" style="fill:#eee;"/>
    </clipPath>
    <linearGradient id="MyGradient" x1="0" x2="0" y1="0" y2="1">
      <stop offset="5%" stop-color="#ddd"/>
      <stop offset="95%" stop-color="#aaa"/>
    </linearGradient>
  </defs>
  <g onclick="createCircle(evt,this)" onmousemove="drag(evt,this)" onmouseup="drop(evt,this)" id="imageContainer" cursor="crosshair">
    <image xlink:href="http://farm5.staticflickr.com/4082/4931773040_326a38a398_b.jpg" width="1024" height="768" opacity="1.0"/>
    <line id="seatTube" display="none" stroke="#000" stroke-width="1" stroke-dasharray="2,2"/>
    <line id="topTube" display="none" stroke="#000" stroke-width="1" stroke-dasharray="2,2"/>
    <line id="headTube" display="none" stroke="#000" stroke-width="1" stroke-dasharray="2,2"/>
    <line id="downTube" display="none" stroke="#000" stroke-width="1" stroke-dasharray="2,2"/>
    <line id="chainStay" display="none" stroke="#000" stroke-width="1" stroke-dasharray="2,2"/>
    <line id="seatStay" display="none" stroke="#000" stroke-width="1" stroke-dasharray="2,2"/>
    <line id="forkTube" display="none" stroke="#000" stroke-width="1" stroke-dasharray="2,2"/>
    <line id="forkRake" display="none" stroke="#000" stroke-width="1" stroke-dasharray="2,2"/>
    <path id="mSeatTube" display="none" stroke="#000" fill="none"/>
    <text id="mSeatTubeText" display="none" fill="#000" x="10" y="10"  style="font-family:Lucida Sans;font-weight:bold;">as</text>
    <text id="aSeatTubeText" display="none" fill="#000" x="10" y="10"  style="font-family:Lucida Sans;font-weight:bold;">as</text>
    <path id="mTopTube" display="none" stroke="#000" fill="none"/>
    <text id="mTopTubeText" display="none" fill="#000" x="10" y="10" style="font-family:Lucida Sans;font-weight:bold;">as</text>
  </g>
  <line id="hXHair" stroke-dasharray="2,2" color="#777" x1="0" x2="1024" stroke="1" opacity="0.5"  pointer-events="none"/>
  <line id="vXHair" stroke-dasharray="2,2" color="#777" y1="0" y2="768" stroke="1" opacity="0.5"  pointer-events="none"/>
  <g transform="translate(976,8)"  id="ZoomInButton" onclick="zoom(evt,this,1)">
    <rect width="16" height="16" style="fill:url(#MyGradient);stroke-width:3;stroke:#333;" rx="4"/>
    <polygon transform="translate(3,3)" points="0,4 10,4 10,6 0,6" fill="#000"/>
  </g>
  <g transform="translate(976,32)"  id="ZoomOutButton" onclick="zoom(evt,this,-1)">
    <rect width="16" height="16" style="fill:url(#MyGradient);stroke-width:3;stroke:#333;" rx="4"/>
    <polygon transform="translate(3,3)" points="0,4 4,4 4,0 6,0 6,4 10,4 10,6 6,6 6,10 4,10 4,6 0,6" fill="#000"/>
</g>
  <g transform="translate(952,80)"  id="panLeftButton" onclick="pan(evt,this,1,0)">
    <rect width="16" height="16" style="fill:url(#MyGradient);stroke-width:3;stroke:#333;" rx="4"/>
    <polygon transform="translate(5,3)" points="0,5 5,0 5,10 " fill="#000"/>

  </g>
  <g transform="translate(1000,80)"  id="panRightButton" onclick="pan(evt,this,-1,0)">
    <rect width="16" height="16" style="fill:url(#MyGradient);stroke-width:3;stroke:#333;" rx="4"/>
    <polygon transform="translate(6,3)" points="0,0 5,5 0,10 " fill="#000"/>
  </g>
  <g transform="translate(976,56)"  id="panUpButton" onclick="pan(evt,this,0,1)">
    <rect width="16" height="16" style="fill:url(#MyGradient);stroke-width:3;stroke:#333;" rx="4"/>
    <polygon transform="translate(3,5)" points="0,5 5,0 10,5 " fill="#000"/>
  </g>
  <g transform="translate(976,104)"  id="panDownButton" onclick="pan(evt,this,0,-1)">
    <rect width="16" height="16" style="fill:url(#MyGradient);stroke-width:3;stroke:#333;" rx="4"/>
    <polygon transform="translate(3,6)" points="0,0 10,0 5,5 " fill="#000"/>
  </g>
  <g transform="translate(256,632)">
    <rect width="512" height="128" rx="8" ry="8" style="fill:#000000;opacity:0.5;"/>
    <g transform="translate(8,8)">
        <g id="viz" clip-path="url(#clipRect)">
        <g id="vizPan" transform="scale(0.5) translate(-100,-290)">
          <rect fill="#efefef" transform="translate(-512,-320)"  width="2048" height="1280"/>
          <path
             d="m 350.67133,52.51602 15.92352,47.61993 -14.766,3.34144 L 337.31504,60.5549 C 329.3806,57.80295 318.02578,58.6029 318.2553,47.37297 l 3.05504,0 c 0,4.07338 16.29351,4.07338 16.29351,0 l 3.05504,0 c 2.67694,3.77502 5.15369,4.72467 10.01244,5.14305 z"
             id="vizSeatPost" fill="#fff" stroke="#000"/>
          <path
             d="m 403.81264,404.81184 c 0,107.93722 -87.60122,195.53844 -195.53844,195.53844 -107.93722,0 -195.53843,-87.60122 -195.53843,-195.53844 0,-107.9372 87.60121,-195.53842 195.53843,-195.53842 107.93722,0 195.53844,87.60122 195.53844,195.53842 z m 12.23561,-1.4e-4 c 0,114.69132 -93.08281,207.77413 -207.77412,207.77413 -114.691327,0 -207.77413026,-93.08281 -207.77413026,-207.77413 0,-114.69131 93.08280326,-207.77412 207.77413026,-207.77412 114.69131,0 207.77412,93.08281 207.77412,207.77412 z"
             id="visRearTyre" fill="#fff" stroke="#000" fill-rule="evenodd"/>
          <path
             d="m 387.51462,404.81186 c 0,98.94075 -80.29973,179.24048 -179.24048,179.24048 -98.94074,0 -179.240472,-80.29973 -179.240472,-179.24048 0,-98.94074 80.299732,-179.24047 179.240472,-179.24047 98.94075,0 179.24048,80.29973 179.24048,179.24047 z m 16.29802,-2e-5 c 0,107.93722 -87.60122,195.53844 -195.53844,195.53844 -107.93722,0 -195.53843,-87.60122 -195.53843,-195.53844 0,-107.9372 87.60121,-195.53842 195.53843,-195.53842 107.93722,0 195.53844,87.60122 195.53844,195.53842 z"
             id="vizRearRim" fill="#fff" stroke="#000" fill-rule="evenodd"/>
          <path
             d="m 233.41785,404.81186 c 0,13.87933 -11.26438,25.14371 -25.1437,25.14371 -13.87933,0 -25.1437,-11.26438 -25.1437,-25.14371 0,-13.87932 11.26437,-25.1437 25.1437,-25.1437 13.87932,0 25.1437,11.26438 25.1437,25.1437 z"
             id="vixRearHub" fill="#fff" stroke="#000"/>
          <path
             d="m 709.29963,103.38118 -21.38524,7.12841 2.10034,7.03294 -316.45058,0.9547 -4.39162,-15.11605 -16.29351,5.09172 6.74653,22.81729 -142.18636,255.19079 c 0,0 -3.05503,3.05503 -5.09172,4.07338 -2.03669,1.01834 -12.22014,2.03669 -14.25683,8.14675 l 0,3.05504 15.27517,0 c 4.07338,0 4.07338,6.11006 0,6.11006 l -15.27517,0 0,3.05504 c 0,0 4.07338,7.12841 11.20179,7.12841 7.12841,0 9.1651,-4.07338 13.23848,-5.09172 4.07338,-1.01835 10.18345,0 10.18345,0 l 213.53413,33.98725 c 1.87361,5.68762 7.24434,9.80158 13.55671,9.80157 7.86977,0 14.25684,-6.38705 14.25683,-14.25683 0,-1.25787 -0.17103,-2.46577 -0.47735,-3.62785 l 236.22412,-255.41356 2.54586,8.52864 21.38524,-7.12841 z m -14.25682,32.58703 0.50917,0 7.41482,24.7585 -241.09308,261.17357 -83.02691,-285.20014 z m -331.21658,9.41968 84.23619,284.69097 -214.32972,-24.24933 c -11.21048,-1.71995 -12.22586,-8.03769 -11.20179,-15.27517 L 363.06247,146.15165 z"
             id="vixFrame" fill="#fff" stroke="#000"/>
          <path
             d="m 290.76,24.96939 8.14676,14.25682 c 0,0 2.03669,4.07338 7.12841,4.07338 2.03669,0 40.73378,-1.01834 40.73378,-1.01834 0,0 7.12842,0 11.20179,-3.05504 4.07338,-3.05503 22.40359,-16.29351 22.40359,-16.29351 l -7.12842,0 -18.3302,12.22013 c 0,0 -4.07338,3.05504 -7.12841,3.05504 -3.05504,0 -41.75213,1.01834 -41.75213,1.01834 -1.32235,-0.12496 -1.78503,-0.53648 -2.03669,-1.01834 l -7.12841,-13.23848 -6.11007,0 z"
             id="vizRail" fill="#fff" stroke="#000"/>
           <path
             d="m 264.29577,31.48759 c 0,0 -11.20179,-26.47696 4.07338,-25.45862 15.27517,1.01834 34.62372,9.1651 62.11902,7.12841 27.4953,-2.03669 43.78882,-3.05503 56.00895,-3.05503 12.22014,0 37.67875,2.03669 35.64206,22.40358 -11.20179,-2.03669 -16.29351,-2.03669 -26.47696,-2.03669 -10.18344,0 -42.77047,2.03669 -63.13736,15.27517 -6.11007,3.93392 -32.58703,-15.27517 -40.73379,-15.27517 -6.11006,3.05503 -28.07756,1.71706 -27.4953,1.01835 z"
             id="vizSaddle" fill="#fff" stroke="#000"/>
          <path
             d="m 1011.7644,404.81184 c 0,107.93722 -87.60126,195.53846 -195.53847,195.53846 -107.93722,0 -195.53843,-87.60124 -195.53843,-195.53846 0,-107.9372 87.60121,-195.53842 195.53843,-195.53842 107.93721,0 195.53847,87.60122 195.53847,195.53842 z M 1024,404.8117 c 0,114.69131 -93.08283,207.77411 -207.77415,207.77411 -114.69132,0 -207.77413,-93.0828 -207.77413,-207.77411 0,-114.69131 93.08281,-207.77412 207.77413,-207.77412 114.69132,0 207.77415,93.08281 207.77415,207.77412 z"
             id="visFrontTyre" fill="#fff" stroke="#000" fill-rule="evenodd"/>
          <path
             d="m 995.46638,404.81186 c 0,98.94075 -80.29976,179.24045 -179.24052,179.24045 -98.94074,0 -179.24047,-80.2997 -179.24047,-179.24045 0,-98.94074 80.29973,-179.24047 179.24047,-179.24047 98.94076,0 179.24052,80.29973 179.24052,179.24047 z m 16.29802,-2e-5 c 0,107.93722 -87.60126,195.53846 -195.53847,195.53846 -107.93722,0 -195.53843,-87.60124 -195.53843,-195.53846 0,-107.9372 87.60121,-195.53842 195.53843,-195.53842 107.93721,0 195.53847,87.60122 195.53847,195.53842 z"
             id="vizFrontRim" fill="#fff" stroke="#000" fill-rule="evenodd"/>
          <path
             d="m 841.36958,404.81186 c 0,13.87933 -11.26438,25.14371 -25.1437,25.14371 -13.87933,0 -25.14371,-11.26438 -25.14371,-25.14371 0,-13.87932 11.26438,-25.1437 25.14371,-25.1437 13.87932,0 25.1437,11.26438 25.1437,25.1437 z"
             id="vizFrontHub" fill="#fff" stroke="#000"/>
          <path
             d="m 733.21892,188.74144 -8.45998,2.80041 -8.45998,2.8004 4.46795,13.5352 1.46197,0.59917 0.15558,4.24982 2.23398,6.76759 c 0.42175,-0.15548 0.8477,-0.30387 1.2996,-0.39907 l 44.30778,131.1167 c 7.54339,21.97062 18.29057,38.95754 32.97249,49.82378 4.13333,2.35754 3.85071,5.62192 6.10722,9.44558 1.46406,2.7897 4.38724,3.43243 7.20003,2.76234 l -3.16471,-6.03019 c -1.89292,-3.60684 3.51735,-6.44621 5.41027,-2.83937 l 3.01682,5.7484 c 1.64341,-1.86623 2.34727,-4.29293 1.06323,-6.7396 -4.77702,-11.29375 -8.24962,-2.57089 -13.83886,-8.83812 -12.87685,-12.69779 -21.87116,-28.30747 -28.40856,-45.75985 L 740.56031,214.2481 c 0.32373,-0.13356 0.64784,-0.25833 0.97808,-0.35488 l -2.23397,-6.7676 -2.43328,-3.49586 0.81379,-1.32136 z"
             id="vizFork"  fill="#fff" stroke="#000"/>
          <path
             d="m 749.93444,52.5879 c -3.59278,0 -6.83731,1.49534 -9.16416,3.87715 L 684.0956,55.6781 c -6.01742,0.84787 -9.63428,6.2446 -6.65106,16.48445 l 10.02433,33.76449 19.63496,-6.61924 -8.11494,-26.09508 41.49942,0.84047 c 2.34282,2.55801 5.704,4.15912 9.44613,4.15912 7.0773,0 12.79459,-5.71729 12.79459,-12.79458 0,-7.07728 -5.71729,-12.82983 -12.79459,-12.82983 z"
             id="vizStem" fill="#fff" stroke="#000"/>
          <path
             d="m 757.89376,55.70992 c -5.00205,-0.0142 -8.17858,0.0636 -8.17858,0.0636 -2.47546,0.0728 -4.94294,1.21138 -6.65106,3.02321 -1.70483,1.80836 -2.68275,4.35998 -2.60951,6.842 0.0731,2.47573 1.21139,4.9433 3.02321,6.65107 1.80869,1.70484 4.36025,2.683 6.842,2.6095 0,0 11.97249,-0.4007 25.45862,0.44553 6.74541,0.42325 13.81659,1.17613 19.66678,2.3231 2.96119,0.58056 5.58583,1.38513 7.57394,2.10033 0.99405,0.35761 1.81164,0.66966 2.45039,0.9547 0.63875,0.28505 0.98835,0.42716 1.43205,0.76376 5.58184,4.2345 8.06406,7.64612 9.54698,12.0292 1.51328,4.47287 1.92938,10.6873 1.20928,20.04866 -1.07039,13.91529 -15.78503,39.81764 -69.7566,42.675 l 0.89105,19.12578 c 60.28215,-3.17535 85.94038,-34.88373 87.89587,-60.30509 0.80701,-10.49115 0.6147,-19.37909 -2.19581,-27.68624 -2.79536,-8.26242 -8.39874,-15.27101 -16.03893,-21.06701 -5.7654,-4.37376 -12.14794,-5.97128 -19.34854,-7.383 -7.14697,-1.4012 -14.88188,-2.15351 -22.149,-2.60951 -7.26418,-0.45581 -14.06503,-0.59047 -19.06214,-0.60464 z"
             id="vizHandlebar" fill="#fff" stroke="#000"/>
          </g>
          <line x1="56" x2="56" y1="0" y2="112" stroke="#f00" opacity="0.5"/>
          <line y1="56" y2="56" x1="0" x2="112" stroke="#f00" opacity="0.5"/>
          <circle transform="translate(96,96)" r="12" fill="#fff"  stroke="#777" opacity="0.5" />
          <path transform="translate(87,90) scale(0.5) " id="vizCheck" d="m 9.804102,28.625 8.585352,0 14.308921,-28.118573 -5.723568,0 L 15.52767,21.595357 12.665886,7.53607 1.21875,11.050892 6.9423181,14.565713 z" fill="#2ca12c" visibility="hidden"/>
        </g>
    </g>
    <g transform="translate(128,8)">
      <text  transform="translate(0,16)" id="instructionHeadline" style="font-family:Lucida Sans;font-weight:bold;fill:#fff;font-size18px;" >
				Rear Hub
</text>
      <text  transform="translate(0,32)" id="instructionText" style="font-family:Lucida Sans;font-weight:normal;fill:#fff;font-size:12px;" >
				Mark the center of the Rear Hub
			</text>
    </g>
    <g transform="translate(312,88)"  id="PrevButton" visibility="hidden" onclick="prevWizStep()">
      <rect width="96" height="32" style="fill:url(#MyGradient);stroke-width:3;stroke:#333;" rx="4"/>
      <text  transform="translate(28,22)" style="font-family:Lucida Sans;font-weight:bold;" cursor="pointer"  pointer-events="none" >Back</text>
      <polygon transform="translate(20,11)" points="0,5 5,0 5,10 " fill="#000"/>
    </g>
    <g transform="translate(408,88)"  id="NextButton" visibility="hidden" onclick="nextWizStep()">
      <rect width="96" height="32" style="fill:url(#MyGradient);stroke-width:3;stroke:#333;" rx="4"  />
      <text  transform="translate(28,22)" style="font-family:Lucida Sans;font-weight:bold;" cursor="pointer"  pointer-events="none" >Next</text>
      <polygon transform="translate(70,11)" points="0,0 5,5 0,10 " fill="#000"/>
    </g>
  </g>
</svg>




