<?xml version="1.0" encoding="UTF-8" standalone="no"?>
<!DOCTYPE svg PUBLIC "-//W3C//DTD SVG 1.1//EN" "http://www.w3.org/Graphics/SVG/1.1/DTD/svg11-flat.dtd">
<svg version="1.1"  id="Canvas" xmlns="http://www.w3.org/2000/svg" xmlns:xlink="http://www.w3.org/1999/xlink">
  <script type="text/ecmascript" xlink:href="js/helper_functions.js"/>
  <script type="text/ecmascript" xlink:href="js/profiler.js"/>
  
<defs>
    <style type="text/css"><![CDATA[
      text {
        fill: #777;
        font-family:Sans-serif;
        font-weight:bold;
        font-size:10px;
      }
      text.red {
        fill: #077;
      }
      text.white {
        fill: #fff;
      }
    ]]></style>
    <filter id="Gaussian_Blur">
            <feGaussianBlur in="SourceGraphic" stdDeviation="6"/>
    </filter>
    <filter id="Gaussian_Blur2">
            <feGaussianBlur in="SourceGraphic" stdDeviation="1"/>
    </filter>
    <linearGradient id="ground" x1="0" x2="0" y="0" y2="1">
                    <stop stop-color="#ccc" offset="0"/>
                    <stop stop-color="#777" offset="1"/>
    </linearGradient>
    <clipPath id="profileClip">
              <rect id="profileClipRect" x="0" y="0" width="512" height="300" fill="#fff"/>
    </clipPath>
    <clipPath id="climbClip">
              <path id="climbClipPath" d="" stroke-width="0" stroke="none" clip-rule="evenodd"/>
    </clipPath>
    <path
       id="climbIcon"
       d="m 13,-16 -2,0 -7,-6 -2,2 -5,-6 -7.5,10 -2.5,0 c 0,-7.179702 5.8202983,-13 13,-13 7.179702,0 13,5.820298 13,13 z m 3,0 C 16,-7.163444 8.836556,0 0,0 c -8.836556,0 -16,-7.163444 -16,-16 0,-8.836556 7.163444,-16 16,-16 8.836556,0 16,7.163444 16,16 z"
       />

</defs>
<g id="layer1">
    <text id="minAltText">Min</text>
    <rect x="0" y="0" height="1" width="1024" fill="#ddd" id="minAltLine"/>
    <text id="maxAltText" font-weight="bold">Max</text>
    <rect x="0" y="0" height="1" width="1024" fill="#ddd" id="maxAltLine"/>
    <text id="gainText" font-weight="bold">Gain</text>
    <g id="distLines"/>
   <g id="slopeComposite">
      <path id="masterProfileShw" stroke="none" stroke-width="0" fill="#000" opacity="0.05" style="filter:url(#Gaussian_Blur)"/>
      <g id="slopeDetail"/>
      <path id="masterProfile" stroke="#fff" stroke-width="0" fill="url(#ground)" opacity="1"  />
      <path id="masterProfileClimb"  fill="red" opacity="0.2" clip-path="url(#climbClip)" />
      <path id="masterProfileClip"  fill="#0ff" opacity="0.1"  visibility="hidden" clip-path="url(#profileClip)"  />
      <line id="cursorLineContd" x1="0" x2="0" y1="0" y2="128" visibility="hidden" stroke="#700"/>
      <line id="cursorLineHeight" x1="0" x2="0" y1="0" y2="128" visibility="hidden"  stroke="#700"/>
      <g id="climbIcons"/>
      <line id="cursorLine" x1="0" x2="0" y1="0" y2="128" stroke="#077" visibility="hidden"/>
      <g id="cur" visibility="hidden">
      <text id="cursorLineTextGlow" class="white" stroke="#fff" stroke-width="3">a</text>
      <text id="cursorLineText" class="red">a</text>
      </g>
   </g>
   <path id="mouseCatcher" fill="#00ffff" onmousemove="drag(evt,this)" onmouseout="out(evt,this)" opacity="0"/>

</g>

</svg>



